<?xml version="1.0" standalone="no"?>
<!DOCTYPE svg PUBLIC "-//W3C//DTD SVG 20010904//EN"
 "http://www.w3.org/TR/2001/REC-SVG-20010904/DTD/svg10.dtd">
<svg version="1.0" xmlns="http://www.w3.org/2000/svg"
 width="2348.000000pt" height="580.000000pt" viewBox="0 0 2348.000000 580.000000"
 preserveAspectRatio="xMidYMid meet">

<g transform="translate(0.000000,580.000000) scale(0.100000,-0.100000)"
fill="#000000" stroke="none">
<path d="M1910 5570 c0 -5 7 -10 15 -10 8 0 15 5 15 10 0 6 -7 10 -15 10 -8 0
-15 -4 -15 -10z"/>
<path d="M2060 5550 c0 -28 -2 -30 -25 -24 -35 9 -65 -20 -65 -61 0 -42 17
-55 69 -53 l41 1 0 84 c0 49 -4 83 -10 83 -5 0 -10 -14 -10 -30z m-5 -60 c8
-26 -2 -57 -20 -64 -18 -6 -45 19 -45 43 0 39 54 57 65 21z"/>
<path d="M2270 5570 c0 -5 7 -10 15 -10 8 0 15 5 15 10 0 6 -7 10 -15 10 -8 0
-15 -4 -15 -10z"/>
<path d="M2480 5495 c0 -50 4 -85 10 -85 6 0 10 17 10 39 0 41 20 67 45 57 10
-4 15 -19 15 -51 0 -33 4 -45 15 -45 18 0 21 54 5 96 -9 24 -14 26 -45 21 -33
-5 -35 -4 -35 24 0 16 -4 29 -10 29 -6 0 -10 -35 -10 -85z"/>
<path d="M1690 5491 c0 -47 4 -81 10 -81 6 0 10 24 10 54 0 30 5 58 10 61 6 3
10 1 10 -5 0 -23 43 -110 55 -110 6 0 17 17 23 38 6 20 18 46 26 57 14 19 15
16 16 -37 0 -32 5 -58 10 -58 6 0 10 33 10 80 0 71 -2 80 -19 80 -13 0 -24
-16 -41 -61 -25 -68 -32 -68 -58 7 -13 36 -24 50 -40 52 -21 3 -22 0 -22 -77z"/>
<path d="M3310 5559 c0 -6 8 -9 19 -6 22 5 51 -9 51 -27 0 -7 -18 -34 -40 -59
-22 -25 -40 -48 -40 -51 0 -3 25 -6 56 -6 34 0 53 4 49 10 -3 6 -20 10 -36 10
l-30 0 30 37 c49 59 38 103 -26 103 -18 0 -33 -5 -33 -11z"/>
<path d="M4100 5561 c0 -5 14 -9 30 -9 17 1 33 -2 36 -5 11 -11 -6 -39 -26
-44 -27 -7 -25 -21 3 -25 14 -2 23 -11 25 -25 3 -21 -1 -23 -37 -23 -23 0 -41
-4 -41 -10 0 -5 20 -10 45 -10 34 0 47 5 55 19 13 25 13 27 -6 46 -12 12 -13
19 -4 30 6 8 10 24 8 37 -2 19 -10 23 -45 26 -24 2 -43 -1 -43 -7z"/>
<path d="M4980 5518 c-16 -29 -30 -56 -30 -60 0 -5 16 -8 35 -8 28 0 35 -4 35
-20 0 -11 6 -20 13 -20 15 0 38 48 26 56 -5 3 -9 27 -9 55 0 42 -3 49 -20 49
-13 0 -29 -17 -50 -52z m40 -17 c0 -32 -16 -49 -31 -34 -11 11 8 63 23 63 4 0
8 -13 8 -29z"/>
<path d="M5820 5530 c0 -35 3 -40 23 -40 57 -1 66 -53 9 -58 -42 -4 -41 -22 2
-22 40 0 59 19 54 57 -2 22 -10 30 -35 38 -47 13 -45 45 2 45 19 0 35 5 35 10
0 6 -20 10 -45 10 l-45 0 0 -40z"/>
<path d="M6619 5548 c-17 -31 -17 -102 0 -121 19 -24 68 -22 81 3 15 29 2 69
-26 76 -12 3 -27 3 -33 0 -16 -10 -20 8 -6 28 8 10 26 19 40 19 14 0 25 3 25
8 0 5 -16 9 -35 9 -25 0 -37 -6 -46 -22z m59 -91 c3 -22 -1 -27 -18 -27 -23 0
-35 22 -26 46 10 25 41 12 44 -19z"/>
<path d="M7465 5560 c3 -5 22 -10 41 -10 19 0 34 -2 34 -4 0 -2 -13 -34 -30
-70 -21 -48 -25 -66 -15 -66 7 0 26 32 42 72 15 40 30 76 31 80 2 5 -22 8 -53
8 -35 0 -54 -4 -50 -10z"/>
<path d="M8330 5555 c-10 -12 -10 -21 -1 -43 9 -18 9 -28 2 -30 -16 -5 -13
-48 3 -61 8 -7 30 -11 48 -9 28 2 34 7 36 30 2 15 -1 35 -6 45 -7 11 -6 23 1
34 5 9 7 24 4 33 -8 21 -70 22 -87 1z m63 -11 c3 -4 2 -15 -4 -26 -8 -15 -13
-17 -25 -7 -20 16 -17 39 4 39 10 0 22 -3 25 -6z m2 -89 c0 -22 -31 -33 -47
-17 -17 17 -1 44 24 40 15 -2 23 -10 23 -23z"/>
<path d="M9192 5558 c-7 -7 -12 -24 -12 -38 0 -34 17 -50 53 -50 22 0 28 -4
23 -16 -3 -9 -6 -18 -6 -20 0 -2 -13 -4 -29 -4 -17 0 -33 -4 -36 -10 -10 -17
62 -11 79 6 22 22 25 106 4 132 -13 15 -60 16 -76 0z m66 -42 c-4 -30 -44 -34
-53 -5 -5 16 -2 26 10 36 23 16 47 -1 43 -31z"/>
<path d="M10002 5558 c-17 -17 -15 -31 3 -24 12 4 15 -6 15 -59 0 -37 4 -65
10 -65 6 0 10 33 10 80 0 81 -9 97 -38 68z"/>
<path d="M10120 5555 c-6 -8 -14 -32 -17 -54 -7 -54 16 -91 57 -91 36 0 50 23
50 80 0 23 -5 50 -10 61 -13 23 -62 26 -80 4z m64 -21 c9 -23 7 -77 -3 -92 -5
-8 -17 -12 -27 -10 -15 2 -20 13 -22 47 -2 24 -1 50 2 57 7 19 42 18 50 -2z"/>
<path d="M10792 5558 c-17 -17 -15 -29 6 -26 15 3 17 -6 17 -60 0 -35 4 -62
10 -62 6 0 9 31 7 80 -4 80 -12 96 -40 68z"/>
<path d="M10924 5549 c-19 -21 -19 -21 1 -18 18 4 20 -2 23 -58 4 -91 22 -77
22 17 0 87 -10 99 -46 59z"/>
<path d="M11500 5490 c0 -47 4 -80 10 -80 6 0 10 25 10 55 0 30 4 55 8 55 4 0
21 -25 37 -55 19 -34 37 -55 48 -55 15 0 17 10 17 80 0 47 -4 80 -10 80 -5 0
-10 -24 -10 -54 0 -30 -4 -57 -8 -60 -4 -3 -23 22 -41 55 -46 84 -61 79 -61
-21z"/>
<path d="M12528 5559 c-22 -12 -23 -29 -3 -29 12 0 15 -13 15 -60 0 -47 3 -60
15 -60 12 0 15 16 15 80 0 83 -5 91 -42 69z"/>
<path d="M12630 5559 c0 -6 9 -9 20 -6 24 6 56 -16 46 -32 -5 -7 -18 -16 -30
-21 -20 -8 -20 -8 7 -19 39 -15 33 -45 -11 -49 -48 -5 -39 -24 11 -20 39 3 42
5 45 36 2 17 -1 32 -6 32 -7 0 -6 11 1 29 16 44 4 61 -43 61 -23 0 -40 -5 -40
-11z"/>
<path d="M13318 5559 c-22 -12 -23 -29 -3 -29 12 0 15 -13 15 -60 0 -47 3 -60
15 -60 12 0 15 16 15 80 0 83 -5 91 -42 69z"/>
<path d="M13440 5518 c-16 -29 -30 -56 -30 -60 0 -5 16 -8 35 -8 28 0 35 -4
35 -20 0 -11 6 -20 13 -20 15 0 38 48 26 56 -5 3 -9 27 -9 55 0 42 -3 49 -20
49 -13 0 -29 -17 -50 -52z m40 -23 c0 -24 -5 -35 -14 -35 -24 0 -29 19 -12 45
22 33 26 31 26 -10z"/>
<path d="M14172 5558 c-16 -16 -15 -29 1 -25 8 1 13 -17 15 -60 4 -91 22 -77
22 17 0 81 -9 97 -38 68z"/>
<path d="M14280 5530 c0 -35 3 -40 23 -40 57 -1 66 -53 9 -58 -42 -4 -41 -22
2 -22 40 0 59 19 54 57 -2 22 -10 30 -35 38 -47 13 -45 45 2 45 19 0 35 5 35
10 0 6 -20 10 -45 10 l-45 0 0 -40z"/>
<path d="M15024 5548 c-19 -21 -19 -21 4 -16 21 6 22 4 22 -58 0 -36 4 -64 10
-64 6 0 10 33 10 80 0 87 -10 99 -46 58z"/>
<path d="M15154 5549 c-24 -27 -27 -115 -4 -129 21 -14 64 -12 78 2 31 31 2
88 -44 88 -40 0 -27 34 14 38 40 4 43 22 4 22 -17 0 -37 -9 -48 -21z m55 -73
c17 -20 3 -46 -25 -46 -18 0 -24 5 -24 23 0 38 26 50 49 23z"/>
<path d="M15888 5559 c-10 -5 -18 -14 -18 -20 0 -5 8 -9 18 -7 14 3 17 -6 20
-59 4 -91 22 -77 22 17 0 83 -5 91 -42 69z"/>
<path d="M15990 5560 c0 -5 16 -10 35 -10 40 0 42 -7 16 -58 -26 -52 -34 -82
-22 -82 10 0 57 95 67 137 6 22 4 23 -45 23 -28 0 -51 -4 -51 -10z"/>
<path d="M16678 5556 c-10 -7 -18 -16 -18 -20 0 -4 8 -6 18 -4 14 3 17 -6 20
-59 4 -91 22 -77 22 17 0 84 -6 94 -42 66z"/>
<path d="M16790 5555 c-10 -12 -10 -21 -1 -43 9 -18 9 -28 2 -30 -16 -5 -13
-48 3 -61 8 -7 30 -11 48 -9 28 2 34 7 36 30 2 15 -1 35 -6 45 -7 11 -6 23 1
34 5 9 7 24 4 33 -8 21 -70 22 -87 1z m65 -15 c4 -6 1 -17 -5 -26 -14 -16 -40
-2 -40 22 0 16 36 19 45 4z m0 -85 c0 -22 -31 -33 -47 -17 -17 17 -1 44 24 40
15 -2 23 -10 23 -23z"/>
<path d="M17534 5549 c-19 -21 -19 -21 1 -18 18 4 20 -2 20 -59 0 -43 4 -62
13 -62 8 0 12 23 12 80 0 87 -10 99 -46 59z"/>
<path d="M17652 5558 c-7 -7 -12 -24 -12 -38 0 -34 17 -50 53 -50 40 0 33 -34
-8 -38 -46 -5 -55 -22 -13 -22 58 0 75 28 68 110 -1 14 -7 31 -12 38 -13 15
-60 16 -76 0z m66 -42 c-4 -30 -44 -34 -53 -5 -5 16 -2 26 10 36 23 16 47 -1
43 -31z"/>
<path d="M18370 5559 c0 -6 9 -9 20 -6 11 3 27 -1 35 -10 13 -13 13 -18 0 -43
-8 -15 -26 -37 -40 -48 -39 -31 -31 -42 31 -42 34 0 53 4 49 10 -3 6 -19 10
-36 10 -35 0 -36 2 -4 34 30 30 41 71 25 91 -14 17 -80 20 -80 4z"/>
<path d="M18510 5556 c-7 -9 -12 -38 -12 -66 0 -61 15 -82 56 -78 27 3 32 8
40 41 6 23 6 51 0 75 -8 32 -13 37 -40 40 -19 2 -36 -3 -44 -12z m65 -36 c4
-16 4 -44 0 -61 -5 -24 -11 -29 -28 -27 -18 2 -23 11 -25 47 -4 54 2 71 27 71
13 0 21 -9 26 -30z"/>
<path d="M19230 5559 c0 -6 8 -9 19 -6 23 6 51 -10 51 -28 0 -8 -18 -33 -40
-55 -22 -22 -40 -44 -40 -50 0 -5 23 -10 50 -10 28 0 50 5 50 10 0 6 -13 10
-30 10 -16 0 -30 2 -30 6 0 3 13 19 30 37 30 32 35 51 24 81 -7 19 -84 23 -84
5z"/>
<path d="M19384 5549 c-19 -21 -19 -21 1 -18 18 4 20 -2 23 -58 4 -91 22 -77
22 17 0 87 -10 99 -46 59z"/>
<path d="M20080 5559 c0 -5 8 -9 18 -8 63 6 69 -22 17 -80 -19 -21 -35 -44
-35 -50 0 -7 20 -11 50 -11 28 0 50 5 50 10 0 6 -16 10 -36 10 l-36 0 36 42
c39 46 41 50 26 79 -8 14 -21 19 -50 19 -22 0 -40 -5 -40 -11z"/>
<path d="M20220 5559 c0 -6 9 -9 20 -6 11 3 27 -1 35 -10 13 -13 13 -18 0 -43
-8 -15 -26 -37 -40 -48 -39 -31 -31 -42 31 -42 34 0 53 4 49 10 -3 6 -19 10
-36 10 -35 0 -36 2 -4 34 30 30 41 71 25 91 -14 17 -80 20 -80 4z"/>
<path d="M20870 5559 c0 -7 10 -9 24 -5 32 8 60 -18 47 -42 -5 -9 -23 -30 -40
-46 -45 -43 -41 -56 19 -56 28 0 50 5 50 10 0 6 -16 10 -36 10 l-36 0 36 40
c37 42 45 67 24 88 -15 15 -88 16 -88 1z"/>
<path d="M21010 5560 c0 -6 8 -9 18 -6 10 4 27 0 37 -8 16 -12 17 -16 6 -30
-7 -9 -23 -16 -34 -16 -25 0 -11 -16 18 -22 12 -2 20 -11 20 -23 0 -16 -8 -21
-37 -23 -21 -2 -38 -7 -38 -13 0 -13 74 -11 88 3 15 15 16 55 1 60 -8 3 -8 10
2 26 10 16 11 26 3 40 -13 19 -84 30 -84 12z"/>
<path d="M2640 5545 c0 -8 -7 -15 -15 -15 -8 0 -15 -4 -15 -10 0 -5 7 -10 14
-10 11 0 16 -14 18 -47 3 -43 6 -48 28 -51 23 -2 24 -1 8 11 -23 18 -25 87 -3
87 8 0 15 5 15 10 0 6 -7 10 -15 10 -8 0 -15 7 -15 15 0 8 -4 15 -10 15 -5 0
-10 -7 -10 -15z"/>
<path d="M1918 5470 c-2 -43 1 -60 10 -60 8 0 12 18 12 54 0 75 -17 80 -22 6z"/>
<path d="M2128 5467 c-2 -36 1 -57 8 -57 6 0 9 12 6 29 -5 36 13 71 37 71 22
0 31 -19 31 -66 0 -19 5 -34 10 -34 13 0 13 76 0 101 -9 15 -20 19 -50 17
l-38 -3 -4 -58z"/>
<path d="M2277 5523 c-4 -3 -7 -30 -7 -60 0 -40 4 -53 15 -53 11 0 15 12 15
48 0 48 -11 78 -23 65z"/>
<path d="M2345 5514 c-19 -20 -19 -78 0 -94 9 -7 27 -10 45 -6 22 4 30 2 30
-9 0 -20 -32 -35 -58 -28 -13 3 -22 1 -22 -6 0 -15 73 -14 88 1 7 7 12 41 12
83 l0 71 -40 1 c-24 1 -46 -4 -55 -13z m65 -24 c16 -30 3 -60 -25 -60 -26 0
-40 28 -30 60 8 26 41 26 55 0z"/>
<path d="M11680 5510 c-24 -24 -25 -48 -4 -78 31 -45 104 -19 104 37 0 55 -61
80 -100 41z m70 -15 c7 -8 10 -25 6 -39 -10 -42 -59 -44 -70 -4 -11 46 35 78
64 43z"/>
<path d="M11820 5510 c-24 -24 -25 -48 -4 -78 31 -45 104 -19 104 37 0 55 -61
80 -100 41z m70 -15 c7 -8 10 -25 6 -39 -10 -42 -59 -44 -70 -4 -11 46 35 78
64 43z"/>
<path d="M11954 5521 c-2 -2 -4 -28 -4 -58 0 -39 4 -53 14 -53 8 0 12 7 10 18
-2 9 -1 31 4 47 6 23 14 30 33 30 22 0 24 -5 27 -47 2 -27 7 -48 13 -48 15 0
11 96 -5 109 -12 10 -82 12 -92 2z"/>
<path d="M1654 5265 c-2 -5 -3 -1124 -2 -2485 l3 -2475 10088 -3 10087 -2 0
2487 0 2488 -10086 0 c-6715 0 -10088 -3 -10090 -10z m206 -170 c0 -83 4 -135
10 -135 6 0 10 52 10 135 l0 135 100 0 100 0 0 -285 c0 -247 2 -285 15 -285
13 0 15 38 15 285 l0 285 85 0 85 0 0 -135 c0 -83 4 -135 10 -135 6 0 10 52
10 135 l0 135 100 0 100 0 -2 -597 -3 -598 -394 -3 c-309 -2 -396 1 -403 10
-9 16 -11 1172 -1 1181 3 4 42 7 85 7 l78 0 0 -135z m840 0 c0 -83 4 -135 10
-135 6 0 10 52 10 135 l0 135 100 0 100 0 0 -285 c0 -247 2 -285 15 -285 13 0
15 38 15 285 l0 285 85 0 85 0 0 -135 c0 -83 4 -135 10 -135 6 0 10 52 10 135
l0 135 95 0 95 0 0 -600 0 -600 -395 0 -395 0 0 600 0 600 80 0 80 0 0 -135z
m850 0 c0 -83 4 -135 10 -135 6 0 10 52 10 135 l0 135 95 0 95 0 0 -285 c0
-247 2 -285 15 -285 13 0 15 38 15 285 l0 286 93 -3 92 -3 5 -135 6 -135 2
138 2 138 93 -3 92 -3 0 -595 0 -595 -402 -3 -403 -2 0 600 0 600 90 0 90 0 0
-135z m820 0 c0 -83 4 -135 10 -135 6 0 10 52 10 135 l0 135 100 0 100 0 0
-285 c0 -247 2 -285 15 -285 13 0 15 38 15 285 l0 285 85 0 85 0 0 -135 c0
-83 4 -135 10 -135 6 0 10 52 10 135 l0 135 100 0 100 0 0 -600 0 -600 -397 2
-398 3 -3 598 -2 597 80 0 80 0 0 -135z m840 0 c0 -83 4 -135 10 -135 6 0 10
52 10 135 l0 135 100 0 100 0 0 -285 c0 -221 3 -285 13 -285 9 0 12 63 12 282
l0 283 90 0 90 0 5 -135 6 -135 2 138 2 137 100 0 100 0 0 -600 0 -600 -397 2
-398 3 -3 598 -2 597 80 0 80 0 0 -135z m850 0 c0 -83 4 -135 10 -135 6 0 10
52 10 135 l0 135 95 0 95 0 0 -285 c0 -265 1 -285 18 -285 16 0 17 20 17 282
l0 283 88 3 87 3 0 -136 c0 -83 4 -135 10 -135 6 0 10 52 10 135 l0 135 95 0
95 0 0 -600 0 -600 -400 0 -400 0 0 600 0 600 85 0 85 0 0 -135z m830 0 c0
-83 4 -135 10 -135 6 0 10 52 10 135 l0 136 103 -3 102 -3 0 -283 c0 -262 1
-282 18 -282 16 0 17 20 17 285 l0 285 85 0 85 0 0 -135 c0 -83 4 -135 10
-135 6 0 10 52 10 135 l0 136 98 -3 97 -3 0 -595 0 -595 -402 -3 -403 -2 0
600 0 600 80 0 80 0 0 -135z m840 0 c0 -83 4 -135 10 -135 6 0 10 52 10 135
l0 135 100 0 100 0 0 -285 c0 -247 2 -285 15 -285 13 0 15 38 15 285 l0 285
90 0 90 0 0 -135 c0 -83 4 -135 10 -135 6 0 10 52 10 135 l0 135 100 0 100 0
0 -600 0 -600 -402 2 -403 3 -3 598 -2 597 80 0 80 0 0 -135z m850 0 c0 -83 4
-135 10 -135 6 0 10 52 10 135 l0 135 100 0 100 0 0 -285 c0 -247 2 -285 15
-285 13 0 15 38 15 285 l0 285 85 0 85 0 0 -135 c0 -83 4 -135 10 -135 6 0 10
52 10 135 l0 135 95 0 95 0 0 -600 0 -600 -395 0 -395 0 0 600 0 600 80 0 80
0 0 -135z m830 0 c0 -83 4 -135 10 -135 6 0 10 52 10 135 l0 135 105 0 105 0
0 -285 c0 -221 3 -285 13 -285 9 0 12 63 12 282 l0 283 88 3 87 3 0 -136 c0
-83 4 -135 10 -135 6 0 10 52 10 135 l0 135 95 0 95 0 0 -600 0 -600 -400 0
-400 0 0 600 0 600 80 0 80 0 0 -135z m840 0 c0 -83 4 -135 10 -135 6 0 10 52
10 135 l0 135 100 0 100 0 0 -285 c0 -247 2 -285 15 -285 13 0 15 38 15 285
l0 285 90 0 90 0 0 -136 c0 -92 3 -133 10 -129 7 4 10 54 9 133 l-1 127 96 3
96 3 0 -601 0 -600 -400 0 -400 0 0 600 0 600 80 0 80 0 0 -135z m850 0 c0
-83 4 -135 10 -135 6 0 10 52 10 135 l0 135 100 0 100 0 0 -285 c0 -247 2
-285 15 -285 13 0 15 38 15 285 l0 285 90 0 90 0 0 -135 c0 -83 4 -135 10
-135 6 0 10 52 10 135 l0 135 90 0 90 0 0 -600 0 -600 -397 2 -398 3 -3 585
c-1 322 0 591 3 598 3 8 30 12 85 12 l80 0 0 -135z m850 0 c0 -83 4 -135 10
-135 6 0 10 52 10 135 l0 135 100 0 100 0 0 -285 c0 -247 2 -285 15 -285 13 0
15 38 15 285 l0 285 85 0 85 0 0 -135 c0 -83 4 -135 10 -135 6 0 10 52 10 135
l0 135 90 0 90 0 0 -600 0 -600 -395 0 -395 0 0 600 0 600 85 0 85 0 0 -135z
m840 0 c0 -83 4 -135 10 -135 6 0 10 52 10 135 l0 135 95 0 95 0 0 -285 c0
-247 2 -285 15 -285 13 0 15 38 15 285 l0 285 90 0 90 0 0 -135 c0 -83 4 -135
10 -135 6 0 10 52 10 135 l0 135 90 0 90 0 0 -600 0 -600 -400 0 -400 0 0 600
0 600 90 0 90 0 0 -135z m850 -2 c0 -75 3 -134 6 -130 3 3 6 63 7 134 l2 128
98 3 97 3 0 -286 c0 -247 2 -285 15 -285 13 0 15 38 15 285 l0 285 90 0 90 0
0 -135 c0 -83 4 -135 10 -135 6 0 10 52 10 135 l0 136 83 -3 82 -3 0 -595 0
-595 -397 -3 -398 -2 0 600 0 600 95 0 95 0 0 -137z m830 2 c0 -83 4 -135 10
-135 6 0 10 52 10 135 l0 135 100 0 100 0 0 -285 c0 -247 2 -285 15 -285 13 0
15 38 15 285 l0 286 88 -3 87 -3 5 -135 4 -135 6 135 5 135 88 3 87 3 0 -601
0 -600 -400 0 -400 0 0 600 0 600 90 0 90 0 0 -135z m840 0 c0 -83 4 -135 10
-135 6 0 10 52 10 135 l0 136 96 -3 95 -3 -1 -282 c-1 -278 0 -283 20 -283 20
0 20 5 20 285 l0 285 85 0 85 0 0 -135 c0 -83 4 -135 10 -135 6 0 10 52 10
135 l0 135 90 0 90 0 0 -600 0 -600 -400 0 -400 0 0 600 0 600 90 0 90 0 0
-135z m850 0 c0 -83 4 -135 10 -135 6 0 10 52 10 135 l0 136 98 -3 97 -3 3
-282 c1 -174 6 -283 12 -283 6 0 11 109 12 283 l3 282 88 3 87 3 0 -136 c0
-83 4 -135 10 -135 6 0 10 52 10 135 l0 135 80 0 80 0 0 -600 0 -600 -395 0
-395 0 0 600 0 600 95 0 95 0 0 -135z m830 0 c0 -83 4 -135 10 -135 6 0 10 52
10 135 l0 135 100 0 100 0 0 -285 c0 -247 2 -285 15 -285 13 0 15 38 15 285
l0 285 85 0 85 0 0 -135 c0 -83 4 -135 10 -135 6 0 10 52 10 135 l0 135 95 0
95 0 0 -600 0 -600 -405 0 -405 0 0 600 0 600 90 0 90 0 0 -135z m840 0 c0
-83 4 -135 10 -135 6 0 10 52 10 135 l0 135 100 0 100 0 0 -285 c0 -247 2
-285 15 -285 13 0 15 38 15 285 l0 286 88 -3 87 -3 5 -135 6 -135 2 138 2 137
100 0 100 0 0 -600 0 -600 -405 0 -405 0 0 600 0 600 85 0 85 0 0 -135z m850
0 c0 -83 4 -135 10 -135 6 0 10 52 10 135 l0 135 95 0 95 0 0 -285 c0 -265 1
-285 18 -285 16 0 17 20 17 282 l0 283 90 0 90 0 5 -135 4 -135 6 135 5 135
93 3 92 3 0 -601 0 -600 -400 0 -400 0 0 600 0 600 85 0 85 0 0 -135z m850 0
c0 -83 4 -135 10 -135 6 0 10 52 10 135 l0 135 100 0 100 0 0 -285 c0 -247 2
-285 15 -285 13 0 15 38 15 285 l0 285 85 0 85 0 0 -135 c0 -83 4 -135 10
-135 6 0 10 52 10 135 l0 135 90 0 90 0 0 -600 0 -600 -397 2 -398 3 -3 585
c-1 322 0 591 3 598 3 8 31 12 90 12 l85 0 0 -135z m830 0 c0 -83 4 -135 10
-135 6 0 10 52 10 135 l0 135 100 0 100 0 0 -285 c0 -247 2 -285 15 -285 13 0
15 38 15 285 l0 285 90 0 90 0 0 -135 c0 -83 4 -135 10 -135 6 0 10 52 10 135
l0 135 95 0 95 0 0 -600 0 -600 -405 0 -405 0 0 600 0 600 85 0 85 0 0 -135z
m860 -5 l6 -135 4 135 5 135 98 3 97 3 0 -286 c0 -247 2 -285 15 -285 13 0 15
38 15 285 l0 285 90 0 90 0 0 -135 c0 -83 4 -135 10 -135 6 0 10 52 10 135 l0
135 65 0 65 0 0 -600 0 -600 -375 0 -375 0 0 600 0 601 88 -3 87 -3 5 -135z
m-19362 -1232 c4 -185 22 -183 22 2 l0 140 100 0 100 0 0 -290 c0 -250 2 -290
15 -290 13 0 15 41 17 288 l3 287 83 3 82 3 0 -135 c0 -182 19 -190 22 -9 l3
138 95 0 95 0 0 -590 0 -590 -400 0 -400 0 -3 570 c-1 314 0 580 3 593 5 22 9
23 83 20 l77 -3 3 -137z m842 2 c0 -87 4 -140 10 -140 6 0 10 53 10 140 l0
141 98 -3 97 -3 3 -287 c2 -247 4 -288 17 -288 13 0 15 40 15 290 l0 290 85 0
85 0 0 -140 c0 -185 18 -187 22 -2 l3 137 93 3 92 3 0 -596 0 -595 -395 0
-395 0 0 595 0 595 80 0 80 0 0 -140z m848 -3 c3 -181 22 -174 22 9 l0 134 95
0 95 0 0 -290 c0 -250 2 -290 15 -290 13 0 15 41 17 288 l3 287 90 0 90 0 5
-140 4 -140 6 140 5 140 90 0 90 0 0 -590 0 -590 -402 -3 -403 -2 0 588 c0
324 3 592 7 596 4 4 43 5 88 4 l80 -3 3 -138z m822 3 c0 -87 4 -140 10 -140 6
0 10 53 10 140 l0 140 100 0 100 0 0 -290 c0 -251 2 -290 15 -290 13 0 15 39
15 290 l0 290 85 0 85 0 0 -134 c0 -183 19 -190 22 -9 l3 138 98 3 97 3 0
-596 0 -595 -397 2 -398 3 -3 580 c-1 319 0 586 3 593 3 8 29 12 80 12 l75 0
0 -140z m840 0 c0 -185 18 -187 22 -2 l3 137 95 0 95 0 3 -287 c2 -220 5 -288
15 -288 9 0 12 66 12 287 l0 288 84 3 c61 2 87 -1 93 -10 4 -7 8 -67 8 -133
-1 -167 3 -167 10 0 l5 140 95 0 95 0 3 -593 2 -592 -397 2 -398 3 -3 580 c-1
319 0 586 3 593 3 8 29 12 80 12 l75 0 0 -140z m848 -3 c3 -181 22 -174 22 9
l0 134 95 0 95 0 0 -290 c0 -270 1 -290 18 -290 16 0 17 20 17 287 l0 288 88
3 87 3 0 -135 c0 -182 19 -190 22 -9 l3 138 93 3 92 3 0 -596 0 -595 -400 0
-400 0 0 595 0 596 83 -3 82 -3 3 -138z m832 3 c0 -185 18 -187 22 -2 l3 137
100 0 100 0 0 -288 c0 -267 1 -287 18 -287 16 0 17 20 17 290 l0 291 83 -3 82
-3 3 -137 c4 -185 22 -183 22 2 l0 140 95 0 c90 0 95 -1 100 -22 3 -13 4 -279
3 -593 l-3 -570 -402 -3 -403 -2 0 588 c0 324 3 592 7 595 3 4 39 7 80 7 l73
0 0 -140z m840 0 c0 -87 4 -140 10 -140 6 0 10 53 10 140 l0 141 98 -3 97 -3
3 -287 c2 -247 4 -288 17 -288 13 0 15 40 15 290 l0 291 88 -3 87 -3 3 -138
c3 -181 22 -173 22 9 l0 135 98 -3 97 -3 3 -593 2 -592 -402 2 -403 3 -3 580
c-1 319 0 586 3 593 3 8 29 12 80 12 l75 0 0 -140z m850 0 c0 -87 4 -140 10
-140 6 0 10 53 10 140 l0 141 98 -3 97 -3 3 -287 c2 -247 4 -288 17 -288 13 0
15 40 15 290 l0 290 85 0 85 0 0 -134 c0 -183 19 -190 22 -9 l3 138 93 3 92 3
0 -596 0 -595 -395 0 -395 0 0 595 0 595 80 0 80 0 0 -140z m830 0 c0 -185 18
-187 22 -2 l3 137 100 0 100 0 3 -287 c2 -220 5 -288 15 -288 9 0 12 66 12
287 l0 288 85 0 85 0 3 -138 c3 -181 22 -174 22 9 l0 134 95 0 95 0 0 -595 0
-595 -400 0 -400 0 0 588 c0 324 3 592 7 595 3 4 39 7 80 7 l73 0 0 -140z
m840 6 c0 -183 19 -190 22 -9 l3 138 98 3 97 3 0 -291 c0 -250 2 -290 15 -290
13 0 15 41 17 288 l3 287 85 0 85 0 5 -140 c6 -167 21 -165 20 2 -1 65 -1 124
-1 131 1 9 27 12 96 12 l95 0 0 -595 0 -595 -400 0 -400 0 0 588 c0 324 3 592
7 595 3 4 39 7 80 7 l73 0 0 -134z m850 -6 c0 -185 18 -187 22 -2 l3 137 95 0
95 0 3 -287 c2 -247 4 -288 17 -288 13 0 15 40 15 290 l0 291 88 -3 87 -3 3
-137 c4 -185 22 -183 22 2 l0 140 90 0 90 0 0 -595 0 -595 -397 2 -398 3 -3
580 c-1 319 0 586 3 593 3 8 30 12 85 12 l80 0 0 -140z m850 0 c0 -87 4 -140
10 -140 6 0 10 53 10 140 l0 140 100 0 100 0 0 -290 c0 -251 2 -290 15 -290
13 0 15 39 15 290 l0 290 85 0 85 0 0 -140 c0 -185 18 -187 22 -2 l3 137 85 0
85 0 3 -592 2 -593 -395 0 -395 0 0 595 0 595 85 0 85 0 0 -140z m838 -3 c3
-181 22 -174 22 9 l0 134 95 0 95 0 0 -290 c0 -250 2 -290 15 -290 13 0 15 41
17 288 l3 287 88 3 87 3 0 -135 c0 -182 19 -190 22 -9 l3 138 85 0 85 0 0
-590 0 -590 -397 -3 -398 -2 0 595 0 596 88 -3 87 -3 3 -138z m852 -2 c7 -165
12 -167 10 -5 -1 64 2 124 6 133 5 14 21 17 100 17 l94 0 0 -290 c0 -250 2
-290 15 -290 13 0 15 41 17 288 l3 287 85 0 85 0 3 -137 c4 -185 22 -183 22 2
l0 141 83 -3 82 -3 0 -590 0 -590 -397 -3 -398 -2 0 595 0 596 93 -3 92 -3 5
-140z m828 3 c4 -185 22 -183 22 2 l0 140 100 0 100 0 0 -290 c0 -250 2 -290
15 -290 13 0 15 41 17 288 l3 287 85 0 85 0 5 -140 c7 -167 11 -167 10 0 0 66
4 126 8 133 6 9 31 12 88 10 l79 -3 3 -592 2 -593 -400 0 -400 0 0 588 c0 324
3 592 7 596 4 4 43 5 88 4 l80 -3 3 -137z m840 0 c4 -185 22 -183 22 2 l0 140
95 0 95 0 0 -290 c0 -283 0 -290 20 -290 20 0 20 7 20 290 l0 290 85 0 85 0 0
-134 c0 -183 19 -190 22 -9 l3 138 88 3 87 3 0 -596 0 -595 -400 0 -400 0 0
595 0 596 88 -3 87 -3 3 -137z m850 0 c4 -185 22 -183 22 2 l0 141 98 -3 97
-3 3 -287 c1 -178 6 -288 12 -288 6 0 11 110 12 288 l3 287 88 3 87 3 0 -141
c0 -185 18 -187 22 -2 l3 137 78 3 77 3 0 -596 0 -595 -395 0 -395 0 0 588 c0
324 3 592 7 596 4 4 46 5 93 4 l85 -3 3 -137z m832 2 c0 -87 4 -140 10 -140 6
0 10 53 10 140 l0 140 100 0 100 0 0 -290 c0 -250 2 -290 15 -290 13 0 15 41
17 288 l3 287 83 3 82 3 0 -135 c0 -182 19 -190 22 -9 l3 138 90 0 90 0 3
-592 2 -593 -405 0 -405 0 0 595 0 595 90 0 90 0 0 -140z m840 0 c0 -185 18
-187 22 -2 l3 137 95 0 95 0 3 -287 c2 -247 4 -288 17 -288 13 0 15 40 15 290
l0 291 88 -3 87 -3 5 -140 4 -140 6 140 5 140 98 3 97 3 0 -596 0 -595 -405 0
-405 0 0 588 c0 324 3 592 7 595 3 4 42 7 85 7 l78 0 0 -140z m848 -2 c4 -185
22 -183 22 2 l0 140 95 0 95 0 0 -290 c0 -270 1 -290 18 -290 16 0 17 18 14
267 -1 148 0 278 3 291 5 22 9 23 93 20 l87 -3 5 -140 c7 -165 12 -167 10 -5
-1 64 2 124 6 133 5 14 20 17 95 17 l89 0 0 -595 0 -595 -400 0 -400 0 0 588
c0 324 3 592 7 596 4 4 41 5 83 4 l75 -3 3 -137z m850 -1 c3 -181 22 -173 22
9 l0 135 98 -3 97 -3 3 -287 c2 -247 4 -288 17 -288 13 0 15 40 15 290 l0 290
85 0 85 0 0 -140 c0 -87 4 -140 10 -140 6 0 10 53 10 140 l0 141 88 -3 87 -3
0 -590 0 -590 -395 0 -395 0 -3 580 c-1 319 0 586 3 593 3 9 27 12 87 10 l83
-3 3 -138z m832 9 c0 -183 19 -190 22 -9 l3 138 98 3 97 3 0 -291 c0 -251 2
-290 15 -290 13 0 15 39 15 290 l0 290 90 0 90 0 0 -140 c0 -185 18 -187 22
-2 l3 137 93 3 92 3 0 -596 0 -595 -405 0 -405 0 0 595 0 595 85 0 85 0 0
-134z m860 -11 l6 -140 4 140 5 140 98 3 97 3 0 -291 c0 -250 2 -290 15 -290
13 0 15 41 17 288 l3 287 85 0 85 0 3 -138 c3 -181 22 -174 22 9 l0 134 65 0
65 0 0 -595 0 -595 -375 0 -375 0 0 588 c0 324 3 592 7 596 4 4 43 5 88 4 l80
-3 5 -140z m-19360 -1215 c0 -87 4 -140 10 -140 6 0 10 53 10 140 l0 140 100
0 100 0 2 -292 c2 -220 6 -292 15 -295 10 -4 13 61 15 289 l3 293 83 3 82 3 0
-141 c0 -185 18 -187 22 -2 l3 137 95 0 95 0 0 -605 0 -605 -400 0 -400 0 -3
585 c-1 322 0 595 3 608 5 20 11 22 85 22 l80 0 0 -140z m840 0 c0 -87 4 -140
10 -140 6 0 10 53 10 140 l0 140 100 0 100 0 0 -295 c0 -256 2 -295 15 -295
13 0 15 39 15 295 l0 295 85 0 85 0 0 -140 c0 -87 4 -140 10 -140 6 0 10 53
10 140 l0 140 95 0 95 0 0 -610 0 -610 -395 0 -395 0 0 610 0 610 80 0 80 0 0
-140z m850 0 c0 -87 4 -140 10 -140 6 0 10 53 10 140 l0 140 95 0 95 0 2 -292
c2 -220 6 -292 15 -295 10 -4 13 61 15 289 l3 293 90 0 90 0 0 -138 c0 -75 3
-137 7 -137 4 0 9 62 10 138 l3 137 90 0 90 0 0 -605 0 -605 -402 -3 -403 -2
0 610 0 610 90 0 90 0 0 -140z m820 0 c0 -87 4 -140 10 -140 6 0 10 53 10 140
l0 140 100 0 100 0 0 -295 c0 -256 2 -295 15 -295 13 0 15 39 15 295 l0 295
85 0 85 0 0 -140 c0 -87 4 -140 10 -140 6 0 10 53 10 140 l0 140 100 0 100 0
0 -610 0 -610 -397 2 -398 3 -3 595 c-1 327 0 601 3 608 3 8 29 12 80 12 l75
0 0 -140z m840 0 c0 -87 4 -140 10 -140 6 0 10 53 10 140 l0 141 98 -3 97 -3
3 -292 c1 -181 6 -293 12 -293 6 0 11 112 12 293 l3 292 90 0 90 0 0 -138 c0
-75 3 -137 7 -137 4 0 9 62 10 138 l3 137 98 3 97 3 0 -611 0 -610 -397 2
-398 3 -3 595 c-1 327 0 601 3 608 3 8 29 12 80 12 l75 0 0 -140z m848 -2 c4
-185 22 -183 22 2 l0 140 95 0 95 0 0 -295 c0 -254 2 -295 15 -295 13 0 15 42
17 293 l3 292 88 3 87 3 0 -141 c0 -87 4 -140 10 -140 6 0 10 53 10 140 l0
140 95 0 95 0 0 -610 0 -610 -400 0 -400 0 0 610 0 611 83 -3 82 -3 3 -137z
m832 2 c0 -87 4 -140 10 -140 6 0 10 53 10 140 l0 141 103 -3 102 -3 3 -293
c2 -228 5 -293 15 -289 9 3 13 75 15 295 l2 292 85 0 85 0 0 -140 c0 -87 4
-140 10 -140 6 0 10 53 10 140 l0 141 98 -3 97 -3 0 -605 0 -605 -402 -3 -403
-2 0 610 0 610 80 0 80 0 0 -140z m840 0 c0 -87 4 -140 10 -140 6 0 10 53 10
140 l0 141 98 -3 97 -3 3 -292 c2 -251 4 -293 17 -293 13 0 15 41 15 295 l0
296 88 -3 87 -3 3 -137 c4 -185 22 -183 22 2 l0 140 100 0 100 0 0 -610 0
-610 -402 2 -403 3 -3 595 c-1 327 0 601 3 608 3 8 29 12 80 12 l75 0 0 -140z
m850 0 c0 -87 4 -140 10 -140 6 0 10 53 10 140 l0 140 100 0 100 0 0 -295 c0
-256 2 -295 15 -295 13 0 15 39 15 295 l0 295 85 0 85 0 0 -140 c0 -185 18
-187 22 -2 l3 137 93 3 92 3 0 -611 0 -610 -395 0 -395 0 0 610 0 610 80 0 80
0 0 -140z m830 0 c0 -87 4 -140 10 -140 6 0 10 53 10 140 l0 141 103 -3 102
-3 3 -292 c1 -181 6 -293 12 -293 6 0 11 112 12 293 l3 292 85 0 85 0 3 -137
c4 -185 22 -183 22 2 l0 140 95 0 95 0 0 -610 0 -610 -400 0 -400 0 0 610 0
610 80 0 80 0 0 -140z m840 0 c0 -185 18 -187 22 -2 l3 137 98 3 97 3 0 -296
c0 -256 2 -295 15 -295 13 0 15 39 15 295 l0 296 88 -3 87 -3 3 -137 c4 -185
22 -183 22 2 l0 140 95 0 95 0 0 -610 0 -610 -400 0 -400 0 0 610 0 610 80 0
80 0 0 -140z m850 0 c0 -87 4 -140 10 -140 6 0 10 53 10 140 l0 141 98 -3 97
-3 3 -292 c2 -251 4 -293 17 -293 13 0 15 41 15 295 l0 295 90 0 90 0 0 -140
c0 -87 4 -140 10 -140 6 0 10 53 10 140 l0 140 90 0 90 0 0 -610 0 -610 -397
2 -398 3 -3 595 c-1 327 0 601 3 608 3 8 30 12 85 12 l80 0 0 -140z m850 0 c0
-87 4 -140 10 -140 6 0 10 53 10 140 l0 140 100 0 100 0 0 -295 c0 -256 2
-295 15 -295 13 0 15 39 15 295 l0 295 85 0 85 0 0 -140 c0 -87 4 -140 10
-140 6 0 10 53 10 140 l0 140 90 0 90 0 0 -610 0 -610 -395 0 -395 0 0 610 0
610 85 0 85 0 0 -140z m838 -2 c4 -185 22 -183 22 2 l0 140 95 0 95 0 2 -292
c2 -222 6 -292 16 -296 9 -3 12 60 12 292 l0 296 90 0 90 0 0 -140 c0 -185 18
-187 22 -2 l3 137 85 0 85 0 0 -605 0 -605 -397 -3 -398 -2 0 610 0 611 88 -3
87 -3 3 -137z m850 0 c1 -76 6 -138 10 -138 4 0 6 53 4 117 -5 172 -10 163
103 163 l95 0 0 -295 c0 -254 2 -295 15 -295 13 0 15 42 17 293 l3 292 88 3
87 3 0 -141 c0 -87 4 -140 10 -140 6 0 10 53 10 140 l0 141 83 -3 82 -3 0
-605 0 -605 -397 -3 -398 -2 0 610 0 611 93 -3 92 -3 3 -137z m832 2 c0 -87 4
-140 10 -140 6 0 10 53 10 140 l0 140 100 0 100 0 2 -292 c2 -220 6 -292 15
-295 10 -4 13 61 15 289 l3 293 85 0 85 0 3 -137 c1 -76 6 -138 10 -138 4 0 7
62 7 137 l0 138 88 3 87 3 0 -611 0 -610 -400 0 -400 0 0 610 0 610 90 0 90 0
0 -140z m840 0 c0 -87 4 -140 10 -140 6 0 10 53 10 140 l0 140 95 0 95 0 2
-292 c3 -270 4 -293 21 -296 16 -3 17 16 17 292 l0 296 85 0 85 0 0 -140 c0
-185 18 -187 22 -2 l3 137 88 3 87 3 0 -611 0 -610 -402 2 c-222 2 -402 6
-400 11 1 4 2 277 2 607 l0 600 90 0 90 0 0 -140z m850 0 c0 -87 4 -140 10
-140 6 0 10 53 10 140 l0 141 98 -3 97 -3 3 -292 c1 -181 6 -293 12 -293 6 0
11 112 12 293 l3 292 88 3 87 3 0 -141 c0 -87 4 -140 10 -140 6 0 10 53 10
140 l0 140 80 0 80 0 0 -610 0 -610 -395 0 -395 0 0 610 0 610 95 0 95 0 0
-140z m830 0 c0 -87 4 -140 10 -140 6 0 10 53 10 140 l0 140 100 0 100 0 2
-292 c2 -222 6 -292 16 -296 9 -3 12 60 12 292 l0 296 85 0 85 0 0 -140 c0
-185 18 -187 22 -2 l3 137 93 3 92 3 0 -611 0 -610 -405 0 -405 0 0 610 0 610
90 0 90 0 0 -140z m840 0 c0 -87 4 -140 10 -140 6 0 10 53 10 140 l0 140 100
0 100 0 0 -295 c0 -256 2 -295 15 -295 13 0 15 39 15 295 l0 296 88 -3 87 -3
5 -140 4 -140 6 140 5 140 98 3 97 3 0 -611 0 -610 -405 0 -405 0 0 610 0 610
85 0 85 0 0 -140z m850 0 c0 -87 4 -140 10 -140 6 0 10 53 10 140 l0 140 95 0
95 0 2 -292 c2 -234 6 -293 16 -293 11 0 13 55 13 280 -1 154 3 286 7 293 6 9
32 12 93 10 l84 -3 3 -137 c1 -76 6 -138 10 -138 4 0 7 62 7 137 l0 138 93 3
92 3 0 -611 0 -610 -400 0 -400 0 0 610 0 610 85 0 85 0 0 -140z m848 -2 c4
-185 22 -183 22 2 l0 140 100 0 100 0 0 -295 c0 -256 2 -295 15 -295 13 0 15
39 15 295 l0 295 85 0 85 0 0 -140 c0 -87 4 -140 10 -140 6 0 10 53 10 140 l0
141 88 -3 87 -3 0 -605 0 -605 -395 0 -395 0 -3 595 c-1 327 0 601 3 608 3 9
27 12 87 10 l83 -3 3 -137z m832 2 c0 -185 18 -187 22 -2 l3 137 98 3 97 3 0
-296 c0 -256 2 -295 15 -295 13 0 15 39 15 295 l0 295 90 0 90 0 0 -140 c0
-87 4 -140 10 -140 6 0 10 53 10 140 l0 140 95 0 95 0 0 -610 0 -610 -405 0
-405 0 0 610 0 610 85 0 85 0 0 -140z m860 -5 l6 -140 4 140 5 140 98 3 97 3
0 -296 c0 -256 2 -295 15 -295 13 0 15 39 15 295 l0 295 90 0 90 0 0 -140 c0
-87 4 -140 10 -140 6 0 10 53 10 140 l0 140 65 0 65 0 0 -610 0 -610 -372 2
-373 3 -3 595 c-1 327 0 601 3 608 3 9 27 12 87 10 l83 -3 5 -140z m-19360
-1245 c0 -87 4 -140 10 -140 6 0 10 53 10 140 l0 140 100 0 100 0 2 -292 c2
-222 6 -292 16 -296 9 -3 12 60 12 292 l0 296 85 0 85 0 0 -140 c0 -185 18
-187 22 -2 l3 137 95 0 95 0 3 -588 2 -587 -402 2 -403 3 -3 575 c-1 316 0
581 3 588 3 8 30 12 85 12 l80 0 0 -140z m840 0 c0 -87 4 -140 10 -140 6 0 10
53 10 140 l0 140 100 0 100 0 0 -296 c0 -232 3 -295 13 -292 9 4 13 74 15 296
l2 292 85 0 85 0 0 -140 c0 -87 4 -140 10 -140 6 0 10 53 10 140 l0 140 95 0
95 0 0 -590 0 -590 -395 0 -395 0 0 590 0 590 80 0 80 0 0 -140z m850 0 c0
-87 4 -140 10 -140 6 0 10 53 10 140 l0 140 95 0 95 0 2 -292 c2 -222 6 -292
16 -296 9 -3 12 60 12 293 l0 296 93 -3 92 -3 0 -138 c0 -75 3 -137 7 -137 4
0 9 62 10 138 l3 137 90 0 90 0 0 -585 0 -585 -402 -3 -403 -2 0 590 0 590 90
0 90 0 0 -140z m820 0 c0 -87 4 -140 10 -140 6 0 10 53 10 140 l0 140 100 0
100 0 2 -292 c2 -222 6 -292 16 -296 9 -3 12 60 12 292 l0 296 85 0 85 0 0
-140 c0 -87 4 -140 10 -140 6 0 10 53 10 140 l0 140 100 0 100 0 0 -590 0
-590 -400 0 -400 0 0 590 0 590 80 0 80 0 0 -140z m840 0 c0 -87 4 -140 10
-140 6 0 10 53 10 140 l0 141 98 -3 97 -3 3 -292 c1 -181 6 -293 12 -293 6 0
11 112 12 293 l3 292 90 0 90 0 0 -138 c0 -75 3 -137 7 -137 4 0 9 62 10 138
l3 137 98 3 97 3 0 -591 0 -590 -400 0 -400 0 0 590 0 590 80 0 80 0 0 -140z
m850 0 c0 -87 4 -140 10 -140 6 0 10 53 10 140 l0 140 95 0 95 0 2 -292 c2
-220 6 -292 15 -295 10 -4 13 61 15 289 l3 293 88 3 87 3 0 -141 c0 -87 4
-140 10 -140 6 0 10 53 10 140 l0 140 95 0 95 0 0 -590 0 -590 -400 0 -400 0
0 590 0 590 85 0 85 0 0 -140z m830 0 c0 -87 4 -140 10 -140 6 0 10 53 10 140
l0 141 103 -3 102 -3 3 -293 c2 -228 5 -293 15 -289 9 3 13 75 15 295 l2 292
85 0 85 0 0 -140 c0 -87 4 -140 10 -140 6 0 10 53 10 140 l0 141 98 -3 97 -3
0 -585 0 -585 -402 -3 -403 -2 0 590 0 590 80 0 80 0 0 -140z m840 0 c0 -87 4
-140 10 -140 6 0 10 53 10 140 l0 141 98 -3 97 -3 3 -293 c2 -228 5 -293 15
-289 9 3 13 75 15 296 l2 292 88 -3 87 -3 3 -137 c4 -185 22 -183 22 2 l0 140
100 0 100 0 0 -590 0 -590 -405 0 -405 0 0 583 c0 321 3 587 7 590 3 4 39 7
80 7 l73 0 0 -140z m850 0 c0 -87 4 -140 10 -140 6 0 10 53 10 140 l0 140 100
0 100 0 0 -296 c0 -232 3 -295 13 -292 9 4 13 74 15 296 l2 292 85 0 85 0 0
-140 c0 -87 4 -140 10 -140 6 0 10 53 10 140 l0 140 95 0 95 0 0 -590 0 -590
-395 0 -395 0 0 590 0 590 80 0 80 0 0 -140z m830 0 c0 -87 4 -140 10 -140 6
0 10 53 10 140 l0 141 103 -3 102 -3 3 -292 c3 -392 21 -392 24 0 l3 292 85 0
85 0 3 -137 c4 -185 22 -183 22 2 l0 140 95 0 95 0 0 -590 0 -590 -400 0 -400
0 0 590 0 590 80 0 80 0 0 -140z m840 0 c0 -87 4 -140 10 -140 6 0 10 53 10
140 l0 140 100 0 100 0 0 -296 c0 -232 3 -295 13 -292 9 4 13 74 15 296 l2
292 90 0 90 0 0 -140 c0 -91 4 -140 10 -140 7 0 10 47 9 138 l-1 137 96 3 96
3 0 -591 0 -590 -400 0 -400 0 0 590 0 590 80 0 80 0 0 -140z m850 0 c0 -87 4
-140 10 -140 6 0 10 53 10 140 l0 141 98 -3 97 -3 5 -288 c3 -179 9 -288 15
-290 6 -1 11 102 13 291 l2 292 90 0 90 0 0 -140 c0 -87 4 -140 10 -140 6 0
10 53 10 140 l0 140 90 0 90 0 0 -590 0 -590 -400 0 -400 0 0 583 c0 321 3
587 7 590 3 4 42 7 85 7 l78 0 0 -140z m850 0 c0 -87 4 -140 10 -140 6 0 10
53 10 140 l0 140 100 0 100 0 0 -295 c0 -256 2 -295 15 -295 13 0 15 39 15
295 l0 295 85 0 85 0 0 -140 c0 -87 4 -140 10 -140 6 0 10 53 10 140 l0 140
90 0 90 0 0 -590 0 -590 -395 0 -395 0 0 590 0 590 85 0 85 0 0 -140z m840 0
c0 -87 4 -140 10 -140 6 0 10 53 10 140 l0 140 95 0 95 0 2 -292 c2 -222 6
-292 16 -296 9 -3 12 60 12 292 l0 296 90 0 90 0 0 -140 c0 -87 4 -140 10
-140 6 0 10 53 10 140 l0 140 90 0 90 0 0 -590 0 -590 -400 0 -400 0 0 590 0
590 90 0 90 0 0 -140z m848 -2 c1 -76 6 -138 10 -138 4 0 7 62 7 137 l0 138
97 3 98 3 2 -292 c2 -221 6 -293 15 -296 10 -4 13 61 15 289 l3 293 88 3 87 3
0 -141 c0 -87 4 -140 10 -140 6 0 10 53 10 140 l0 141 83 -3 82 -3 0 -585 0
-585 -397 -3 -398 -2 0 590 0 591 93 -3 92 -3 3 -137z m832 2 c0 -87 4 -140
10 -140 6 0 10 53 10 140 l0 140 100 0 100 0 2 -292 c2 -220 6 -292 15 -295
10 -4 13 61 15 289 l3 293 85 0 85 0 3 -137 c1 -76 6 -138 10 -138 4 0 7 62 7
137 l0 138 88 3 87 3 0 -591 0 -590 -400 0 -400 0 0 590 0 590 90 0 90 0 0
-140z m840 0 c0 -87 4 -140 10 -140 6 0 10 53 10 140 l0 141 96 -3 95 -3 0
-280 c-1 -154 3 -286 8 -294 26 -40 31 7 31 290 l0 289 85 0 85 0 0 -140 c0
-87 4 -140 10 -140 6 0 10 53 10 140 l0 140 90 0 90 0 0 -590 0 -590 -400 0
-400 0 -2 586 c-2 322 -1 588 1 590 2 2 44 4 93 4 l88 0 0 -140z m850 0 c0
-87 4 -140 10 -140 6 0 10 53 10 140 l0 141 98 -3 97 -3 3 -292 c1 -181 6
-293 12 -293 6 0 11 112 12 293 l3 292 88 3 87 3 0 -141 c0 -87 4 -140 10
-140 6 0 10 53 10 140 l0 140 80 0 80 0 0 -590 0 -590 -395 0 -395 0 0 590 0
590 95 0 95 0 0 -140z m830 0 c0 -87 4 -140 10 -140 6 0 10 53 10 140 l0 140
100 0 100 0 2 -292 c2 -222 6 -292 16 -296 9 -3 12 60 12 293 l0 296 86 -3 86
-3 -1 -137 c-1 -91 2 -138 9 -138 6 0 10 49 10 140 l0 140 95 0 95 0 0 -590 0
-590 -405 0 -405 0 0 590 0 590 90 0 90 0 0 -140z m840 0 c0 -87 4 -140 10
-140 6 0 10 53 10 140 l0 140 100 0 100 0 0 -296 c0 -232 3 -295 13 -292 9 4
13 74 15 297 l2 292 88 -3 87 -3 5 -140 4 -140 6 140 5 140 98 3 97 3 0 -591
0 -590 -405 0 -405 0 0 590 0 590 85 0 85 0 0 -140z m850 0 c0 -87 4 -140 10
-140 6 0 10 53 10 140 l0 140 95 0 95 0 0 -282 c0 -254 6 -325 25 -306 3 3 7
135 8 294 l2 289 90 0 90 0 3 -137 c1 -76 6 -138 10 -138 4 0 7 62 7 137 l0
138 93 3 92 3 0 -591 0 -590 -400 0 -400 0 0 590 0 590 85 0 85 0 0 -140z
m850 0 c0 -87 4 -140 10 -140 6 0 10 53 10 140 l0 140 100 0 100 0 0 -295 c0
-256 2 -295 15 -295 13 0 15 39 15 295 l0 295 85 0 85 0 0 -140 c0 -87 4 -140
10 -140 6 0 10 53 10 140 l0 140 90 0 90 0 0 -590 0 -590 -397 2 -398 3 -3
575 c-1 316 0 581 3 588 3 8 31 12 90 12 l85 0 0 -140z m831 -2 c-1 -88 2
-138 8 -138 7 0 11 53 13 138 l3 137 97 3 98 3 2 -292 c2 -223 6 -293 16 -297
9 -3 12 60 12 292 l0 296 90 0 90 0 0 -140 c0 -87 4 -140 10 -140 6 0 10 53
10 140 l0 140 95 0 95 0 0 -590 0 -590 -405 0 -405 0 0 590 0 591 86 -3 86 -3
-1 -137z m854 -1 c0 -75 3 -137 7 -137 4 0 9 62 10 138 l3 137 98 3 97 3 0
-296 c0 -233 3 -296 13 -293 9 4 13 74 15 296 l2 292 90 0 90 0 0 -140 c0 -87
4 -140 10 -140 6 0 10 53 10 140 l0 140 65 0 65 0 0 -590 0 -590 -375 0 -375
0 0 590 0 591 88 -3 87 -3 0 -138z"/>
<path d="M1300 4870 c-11 -11 -20 -29 -20 -40 0 -12 -10 -25 -22 -30 l-23 -9
23 -7 c20 -6 22 -12 22 -75 0 -55 3 -69 15 -69 12 0 15 14 15 69 0 67 1 69 28
73 57 8 62 3 62 -73 0 -55 3 -69 15 -69 12 0 15 14 15 70 0 63 2 70 19 70 11
0 23 5 26 10 3 6 -3 10 -14 10 -11 0 -23 5 -26 10 -11 18 6 50 26 50 22 0 26
18 5 26 -24 9 -55 -15 -64 -49 -7 -27 -13 -33 -41 -35 -19 -2 -38 1 -43 6 -13
13 0 52 18 52 8 0 14 7 14 15 0 21 -26 19 -50 -5z"/>
<path d="M1053 4852 c-37 -28 -55 -86 -43 -132 30 -111 183 -107 204 5 10 53
-1 91 -36 120 -35 30 -92 33 -125 7z m107 -32 c28 -28 30 -87 4 -127 -21 -33
-76 -31 -103 3 -61 78 30 193 99 124z"/>
<path d="M790 4400 l0 -110 55 0 c30 0 65 5 78 11 41 19 61 78 46 135 -14 48
-58 74 -126 74 l-53 0 0 -110z m127 58 c25 -23 31 -74 13 -108 -11 -20 -83
-45 -100 -35 -6 3 -10 42 -10 86 l0 79 37 0 c24 0 45 -8 60 -22z"/>
<path d="M1240 4476 c-5 -14 -16 -26 -25 -26 -22 0 -18 -17 5 -23 17 -4 20
-14 20 -66 0 -55 2 -63 24 -72 17 -8 29 -8 42 -1 18 10 17 11 -8 21 -26 10
-28 15 -28 66 0 54 0 55 29 55 26 0 32 -6 49 -52 31 -83 34 -97 27 -118 -4
-11 -15 -20 -27 -20 -20 0 -21 -21 -1 -27 25 -9 62 46 93 135 18 51 30 96 27
99 -11 11 -24 -8 -42 -61 -11 -31 -22 -56 -26 -56 -4 0 -15 26 -25 58 -16 49
-23 57 -44 58 -55 2 -60 4 -60 23 0 31 -19 35 -30 7z"/>
<path d="M1030 4381 c0 -65 2 -72 25 -87 20 -13 31 -15 49 -6 13 6 33 8 45 5
20 -5 21 -2 21 76 0 65 -3 81 -15 81 -11 0 -15 -13 -15 -53 0 -63 -16 -90 -51
-85 -22 3 -24 8 -29 67 -3 39 -10 66 -17 69 -10 3 -13 -15 -13 -67z"/>
<path d="M21880 4020 c0 -20 4 -20 743 -18 652 3 742 5 742 18 0 13 -90 15
-742 18 -739 2 -743 2 -743 -18z"/>
<path d="M560 3690 c0 -100 3 -120 15 -120 13 0 15 20 15 120 0 100 -2 120
-15 120 -12 0 -15 -20 -15 -120z"/>
<path d="M420 3787 c-19 -9 -26 -22 -28 -49 -3 -34 0 -38 42 -63 30 -17 46
-34 46 -46 0 -23 -38 -40 -69 -32 -15 4 -21 1 -21 -11 0 -12 10 -16 44 -16 54
0 76 19 76 66 0 30 -6 38 -45 62 -24 15 -45 35 -45 44 0 20 32 32 60 23 24 -8
28 20 4 29 -23 9 -36 7 -64 -7z"/>
<path d="M679 3729 c-49 -18 -64 -88 -28 -133 17 -22 28 -26 70 -26 38 0 49 4
49 15 0 13 -7 15 -33 10 -25 -5 -39 -2 -50 10 -32 32 -21 45 38 45 37 0 55 4
55 13 -1 34 -15 57 -42 66 -17 6 -31 11 -32 10 -1 0 -13 -5 -27 -10z m59 -31
c21 -21 13 -28 -28 -28 -43 0 -43 0 -34 24 7 19 45 21 62 4z"/>
<path d="M863 3730 c-46 -19 -59 -99 -23 -138 25 -27 104 -32 114 -7 4 12 -1
14 -33 9 -32 -5 -41 -3 -54 17 -23 31 -14 39 47 39 l53 0 -5 30 c-2 16 -9 34
-16 39 -18 15 -59 21 -83 11z m65 -42 c3 -15 -4 -18 -37 -18 -43 0 -50 7 -29
28 18 18 62 11 66 -10z"/>
<path d="M1077 3733 c-4 -3 -22 -6 -39 -5 l-33 1 0 -107 c0 -99 7 -128 27
-116 4 3 8 20 8 38 l0 34 44 -5 c37 -5 46 -2 60 18 16 24 20 66 10 105 -8 29
-61 54 -77 37z m41 -35 c28 -28 3 -108 -34 -108 -36 0 -56 59 -34 101 12 21
50 25 68 7z"/>
<path d="M1240 3727 c-49 -25 -59 -81 -24 -134 12 -19 24 -23 64 -23 37 0 50
4 50 14 0 11 -9 13 -33 9 -24 -3 -39 0 -50 12 -32 32 -21 45 38 45 37 0 55 4
55 13 -1 34 -15 57 -42 66 -17 6 -31 11 -32 11 -1 0 -12 -6 -26 -13z m58 -29
c21 -21 13 -28 -28 -28 -43 0 -43 0 -34 24 7 19 45 21 62 4z"/>
<path d="M1447 3733 c-4 -3 -19 -6 -34 -5 l-28 1 3 -80 c4 -79 21 -112 23 -41
2 59 13 86 42 100 15 7 25 17 22 23 -7 11 -19 12 -28 2z"/>
<path d="M1317 3463 c-4 -3 -7 -57 -7 -120 0 -94 3 -113 15 -113 11 0 15 12
15 48 0 53 21 92 50 92 27 0 40 -30 40 -89 0 -39 4 -51 15 -51 12 0 15 14 15
63 0 81 -19 102 -80 94 l-40 -5 0 44 c0 41 -8 53 -23 37z"/>
<path d="M680 3340 l0 -110 55 0 c42 0 60 5 75 20 25 25 25 41 0 73 -17 22
-18 26 -5 37 8 7 15 22 15 35 0 36 -31 55 -88 55 l-52 0 0 -110z m103 70 c17
-15 1 -44 -28 -51 -33 -9 -43 0 -39 34 1 12 3 25 3 30 1 8 52 -2 64 -13z m-3
-95 c18 -22 8 -49 -23 -59 -33 -12 -44 -1 -41 41 1 15 3 29 3 31 3 9 51 -1 61
-13z"/>
<path d="M1207 3433 c-4 -3 -7 -15 -7 -25 0 -19 -7 -21 -87 -20 l-53 0 0 -79
c0 -64 3 -79 15 -79 11 0 15 12 15 48 0 66 21 94 68 90 36 -3 37 -4 40 -48 1
-25 4 -55 7 -66 5 -22 37 -37 61 -27 21 8 17 21 -8 25 -20 3 -23 10 -26 61 -3
56 -2 57 23 57 15 0 24 4 20 10 -3 6 -15 10 -26 10 -14 0 -19 7 -19 25 0 24
-10 32 -23 18z"/>
<path d="M891 3364 c-23 -29 -27 -74 -11 -104 13 -25 74 -42 106 -30 37 14 29
27 -17 26 -32 -1 -44 4 -56 22 l-15 22 62 0 62 0 -7 28 c-16 65 -85 85 -124
36z m77 -6 c22 -22 13 -38 -21 -38 -42 0 -49 7 -34 31 13 22 37 25 55 7z"/>
<path d="M21870 2795 c0 -13 90 -15 750 -15 660 0 750 2 750 15 0 13 -90 15
-750 15 -660 0 -750 -2 -750 -15z"/>
<path d="M772 2363 c4 -21 33 -25 33 -3 0 8 -8 16 -18 18 -14 3 -18 -1 -15
-15z"/>
<path d="M1030 2360 c0 -11 7 -20 15 -20 8 0 15 9 15 20 0 11 -7 20 -15 20 -8
0 -15 -9 -15 -20z"/>
<path d="M420 2256 l0 -116 49 0 c64 0 113 32 125 82 20 82 -23 133 -123 145
l-51 6 0 -117z m125 53 c13 -13 20 -32 20 -60 0 -48 -32 -78 -82 -79 l-33 0 0
86 0 86 38 -7 c20 -3 46 -15 57 -26z"/>
<path d="M701 2301 c-7 -5 -22 -6 -32 -4 -17 5 -19 -1 -19 -76 0 -65 3 -81 15
-81 11 0 15 12 15 51 0 60 13 89 40 89 11 0 20 7 20 15 0 17 -18 19 -39 6z"/>
<path d="M1187 2303 c-4 -3 -20 -6 -37 -5 l-30 1 0 -80 c0 -64 3 -79 15 -79
12 0 15 13 15 58 0 62 11 82 46 82 27 0 34 -17 34 -86 0 -41 4 -54 15 -54 25
0 21 124 -5 150 -20 20 -41 25 -53 13z"/>
<path d="M1343 2300 c-25 -10 -43 -64 -36 -104 9 -45 72 -73 100 -45 17 17 26
-7 13 -32 -10 -17 -19 -20 -56 -17 -29 2 -44 -1 -44 -9 0 -17 36 -26 76 -19
52 10 64 37 64 138 0 85 -1 88 -22 86 -13 0 -34 2 -48 5 -14 3 -35 2 -47 -3z
m76 -47 c9 -20 9 -33 0 -55 -21 -50 -81 -30 -81 27 0 56 59 77 81 28z"/>
<path d="M770 2220 c0 -63 3 -80 14 -80 11 0 15 19 18 80 3 71 1 80 -14 80
-16 0 -18 -10 -18 -80z"/>
<path d="M854 2258 c45 -144 68 -151 108 -35 25 69 26 78 10 75 -11 -2 -22
-21 -31 -56 -8 -28 -17 -52 -22 -52 -4 0 -16 24 -27 53 -11 28 -27 53 -36 55
-14 3 -14 -1 -2 -40z"/>
<path d="M1030 2220 c0 -64 3 -80 15 -80 12 0 15 16 15 80 0 64 -3 80 -15 80
-12 0 -15 -16 -15 -80z"/>
<path d="M21870 1550 c0 -20 4 -20 748 -18 656 3 747 5 747 18 0 13 -91 15
-747 18 -744 2 -748 2 -748 -18z"/>
<path d="M298 1294 c-37 -20 -48 -43 -48 -104 0 -44 5 -56 29 -81 51 -50 137
-36 170 28 14 28 14 85 0 116 -23 51 -97 71 -151 41z m102 -32 c32 -26 38 -90
10 -124 -29 -38 -80 -39 -109 -2 -60 77 25 186 99 126z"/>
<path d="M790 1195 l0 -115 46 0 c53 0 110 24 125 52 12 22 14 85 4 117 -9 30
-75 61 -130 61 l-45 0 0 -115z m109 70 c33 -16 41 -33 41 -80 0 -43 -40 -77
-84 -73 -31 3 -31 3 -34 72 -2 38 -1 75 2 83 7 17 40 17 75 -2z"/>
<path d="M1240 1269 c0 -12 -8 -23 -20 -26 -11 -3 -20 -9 -20 -14 0 -5 9 -9
20 -9 18 0 20 -7 20 -58 0 -32 5 -63 12 -70 15 -15 54 -16 63 -2 3 6 -3 10
-13 10 -24 0 -32 18 -32 75 0 39 3 43 27 48 33 6 36 2 63 -85 22 -72 19 -93
-11 -101 -25 -7 -25 -27 1 -27 30 0 52 31 83 118 42 115 41 112 25 112 -9 0
-22 -22 -33 -55 -11 -30 -22 -55 -26 -55 -4 0 -15 24 -23 54 -16 54 -17 55
-59 58 -35 2 -43 7 -45 26 -4 28 -32 29 -32 1z"/>
<path d="M503 1234 c-9 -25 2 -148 15 -152 8 -2 12 7 12 30 0 18 5 50 11 71 8
32 14 37 38 37 35 0 41 -14 41 -86 0 -43 3 -54 16 -54 14 0 16 11 12 70 -2 38
-9 75 -16 82 -16 16 -123 17 -129 2z"/>
<path d="M1030 1184 c0 -83 11 -104 53 -104 18 0 38 5 45 12 9 9 12 9 12 0 0
-7 7 -12 15 -12 12 0 15 16 15 80 0 64 -3 80 -15 80 -11 0 -15 -12 -15 -49 0
-61 -28 -103 -57 -85 -14 8 -19 26 -21 72 -2 41 -7 62 -17 66 -12 4 -15 -7
-15 -60z"/>
<path d="M978 952 c-30 -65 -32 -95 -8 -150 12 -29 29 -52 36 -52 11 0 11 5 2
28 -7 15 -15 31 -20 36 -14 17 -8 83 12 130 24 57 4 64 -22 8z"/>
<path d="M1050 880 c0 -53 4 -90 10 -90 6 0 10 28 10 65 0 36 4 65 8 65 5 0
24 -28 43 -62 19 -35 42 -64 52 -66 15 -3 17 7 17 87 0 54 -4 91 -10 91 -6 0
-10 -28 -10 -65 0 -36 -4 -65 -8 -65 -5 0 -23 29 -41 65 -23 47 -37 65 -51 65
-18 0 -20 -7 -20 -90z"/>
<path d="M1413 943 c-4 -10 -11 -22 -17 -26 -8 -6 -7 -10 2 -14 6 -2 12 -20
12 -39 0 -48 16 -74 45 -74 14 0 25 5 25 10 0 6 -9 10 -20 10 -17 0 -20 7 -20
45 0 33 4 45 15 45 8 0 15 4 15 9 0 5 -7 11 -15 15 -8 3 -15 12 -15 21 0 21
-19 19 -27 -2z"/>
<path d="M1247 902 c-21 -23 -22 -61 -1 -90 12 -18 24 -22 51 -20 92 8 90 128
-1 128 -19 0 -40 -8 -49 -18z m81 -14 c7 -7 12 -21 12 -33 0 -47 -62 -63 -81
-21 -22 47 33 90 69 54z"/>
<path d="M816 683 c-11 -11 -6 -23 9 -23 8 0 15 4 15 9 0 13 -16 22 -24 14z"/>
<path d="M1026 682 c-3 -6 -1 -14 5 -17 15 -10 25 3 12 16 -7 7 -13 7 -17 1z"/>
<path d="M1420 650 c11 -21 20 -55 20 -75 0 -20 -9 -54 -20 -75 -26 -51 -3
-56 24 -5 25 47 26 113 1 158 -28 52 -52 50 -25 -3z"/>
<path d="M520 591 l0 -91 44 0 c58 0 74 7 91 41 36 70 1 129 -83 137 l-52 5 0
-92z m103 42 c22 -20 22 -71 0 -95 -9 -10 -30 -18 -50 -18 l-33 0 0 63 c0 35
3 67 7 71 10 10 55 -3 76 -21z"/>
<path d="M710 563 c0 -35 4 -63 10 -63 6 0 10 13 10 29 0 42 17 81 35 81 8 0
15 4 15 9 0 5 -16 9 -35 8 l-35 -1 0 -63z"/>
<path d="M810 565 c0 -51 3 -65 15 -65 12 0 15 14 15 65 0 51 -3 65 -15 65
-12 0 -15 -14 -15 -65z"/>
<path d="M893 565 c17 -53 25 -65 40 -63 14 2 25 20 38 63 17 54 18 77 3 62
-3 -3 -12 -23 -19 -43 -18 -53 -30 -53 -44 1 -7 26 -17 45 -25 45 -11 0 -10
-13 7 -65z"/>
<path d="M1030 565 c0 -37 4 -65 10 -65 6 0 10 28 10 65 0 37 -4 65 -10 65 -6
0 -10 -28 -10 -65z"/>
<path d="M1090 563 c0 -35 4 -63 10 -63 6 0 10 15 10 33 0 39 24 77 49 77 14
0 20 -11 25 -45 4 -25 4 -49 1 -55 -3 -5 1 -10 9 -10 12 0 16 11 16 46 0 71
-12 84 -70 82 l-50 -2 0 -63z"/>
<path d="M1254 595 c-12 -30 -13 -40 -1 -63 11 -23 19 -27 55 -26 47 1 51 -7
22 -36 -15 -15 -27 -18 -51 -13 -23 4 -30 3 -25 -5 4 -7 24 -12 45 -12 57 0
71 22 71 111 l0 75 -51 2 c-49 2 -50 1 -65 -33z m84 -6 c26 -41 -20 -96 -52
-63 -19 18 -20 38 -6 65 14 25 42 24 58 -2z"/>
<path d="M21870 325 c0 -13 90 -15 750 -15 660 0 750 2 750 15 0 13 -90 15
-750 15 -660 0 -750 -2 -750 -15z"/>
</g>
</svg>
